<svg width="201" height="200" viewBox="0 0 201 200" fill="none" xmlns="http://www.w3.org/2000/svg">
<mask id="path-1-inside-1_15_116" fill="white">
<path d="M100.251 200C44.8838 200 8.45651e-06 155.228 1.08767e-05 100C1.32969e-05 44.7715 44.8839 -6.78525e-06 100.251 -4.37114e-06C155.618 -1.95703e-06 200.502 44.7715 200.502 100C200.502 155.228 155.618 200 100.251 200Z"/>
</mask>
<path d="M100.251 200C44.8838 200 8.45651e-06 155.228 1.08767e-05 100C1.32969e-05 44.7715 44.8839 -6.78525e-06 100.251 -4.37114e-06C155.618 -1.95703e-06 200.502 44.7715 200.502 100C200.502 155.228 155.618 200 100.251 200Z" fill="url(#paint0_radial_15_116)" fill-opacity="0.5"/>
<path d="M100.251 196C47.0835 196 4.00001 153.01 4.00001 100L-3.99999 100C-3.99999 157.447 42.6841 204 100.251 204L100.251 196ZM4.00001 100C4.00001 46.9901 47.0835 3.99999 100.251 4L100.251 -4C42.6842 -4.00001 -3.99999 42.5529 -3.99999 100L4.00001 100ZM100.251 4C153.418 4 196.502 46.9901 196.502 100L204.502 100C204.502 42.5529 157.818 -4 100.251 -4L100.251 4ZM196.502 100C196.502 153.01 153.418 196 100.251 196L100.251 204C157.818 204 204.502 157.447 204.502 100L196.502 100Z" fill="url(#paint1_linear_15_116)" mask="url(#path-1-inside-1_15_116)"/>
<defs>
<radialGradient id="paint0_radial_15_116" cx="0" cy="0" r="1" gradientUnits="userSpaceOnUse" gradientTransform="translate(100.251 100) rotate(90) scale(103.154 109.048)">
<stop stop-color="#3D3E43" stop-opacity="0"/>
<stop offset="0.755208" stop-color="#545AE9"/>
<stop offset="1" stop-color="#101010" stop-opacity="0"/>
</radialGradient>
<linearGradient id="paint1_linear_15_116" x1="100.081" y1="197.217" x2="100.081" y2="3.30863e-06" gradientUnits="userSpaceOnUse">
<stop stop-color="#4959EC" stop-opacity="0"/>
<stop offset="0.273861" stop-color="#545AE9"/>
<stop offset="0.447081" stop-color="#C161C9"/>
<stop offset="0.541673" stop-color="#4959EC"/>
<stop offset="1" stop-color="#4959EC" stop-opacity="0"/>
</linearGradient>
</defs>
</svg>
