<svg width="30" height="30" viewBox="0 0 30 30" fill="none" xmlns="http://www.w3.org/2000/svg">
<path d="M27.9375 7.89844H22.7484C23.2266 7.14609 23.5078 6.25313 23.5078 5.29688C23.5078 2.62148 21.3316 0.445312 18.6562 0.445312C17.2008 0.445312 15.8895 1.09219 15 2.11172C14.1105 1.09219 12.7992 0.445312 11.3438 0.445312C8.66836 0.445312 6.49219 2.62148 6.49219 5.29688C6.49219 6.25313 6.76992 7.14609 7.25156 7.89844H2.0625C1.44023 7.89844 0.9375 8.40117 0.9375 9.02344V16.0547C0.9375 16.2094 1.06406 16.3359 1.21875 16.3359H2.625V28.4297C2.625 29.052 3.12773 29.5547 3.75 29.5547H26.25C26.8723 29.5547 27.375 29.052 27.375 28.4297V16.3359H28.7812C28.9359 16.3359 29.0625 16.2094 29.0625 16.0547V9.02344C29.0625 8.40117 28.5598 7.89844 27.9375 7.89844ZM16.1953 5.29688C16.1953 3.93984 17.2992 2.83594 18.6562 2.83594C20.0133 2.83594 21.1172 3.93984 21.1172 5.29688C21.1172 6.65391 20.0133 7.75781 18.6562 7.75781H16.1953V5.29688ZM11.3438 2.83594C12.7008 2.83594 13.8047 3.93984 13.8047 5.29688V7.75781H11.3438C9.98672 7.75781 8.88281 6.65391 8.88281 5.29688C8.88281 3.93984 9.98672 2.83594 11.3438 2.83594ZM3.32812 13.9453V10.2891H13.8047V13.9453H3.32812ZM5.01562 16.3359H13.8047V27.1641H5.01562V16.3359ZM24.9844 27.1641H16.1953V16.3359H24.9844V27.1641ZM26.6719 13.9453H16.1953V10.2891H26.6719V13.9453Z" fill="white"/>
</svg>
